<svg width="194" height="132" viewBox="0 0 194 132" fill="none" xmlns="http://www.w3.org/2000/svg">
<path d="M151 40.0924C151 20.8108 138.646 0 118.688 0C104.674 0 96.179 8.26038 92 13.9295C87.821 8.25901 79.3261 0 65.3119 0C45.3541 0 33 20.8108 33 40.0924C33 62.8795 51.3973 81.9026 71.278 99.0671C71.9289 99.6302 72.7042 99.9022 73.4733 99.9022C74.5274 99.9022 75.5702 99.3897 76.2721 98.4097C77.4855 96.715 77.218 94.2591 75.6735 92.9265C57.2041 76.9811 40.1135 59.5447 40.1135 40.0924C40.1135 27.0745 48.1218 7.8121 65.3119 7.8121C81.7143 7.8121 88.5453 22.0368 88.8203 22.6286C89.4214 23.9433 90.6485 24.7675 91.9876 24.7743C91.9925 24.7743 91.9975 24.7743 92.0037 24.7743C93.3378 24.7743 94.5624 23.9474 95.1722 22.6436C95.4547 22.0382 102.287 7.81347 118.689 7.81347C135.879 7.81347 143.888 27.0758 143.888 40.0937C143.888 55.2778 133.84 70.5754 110.315 91.1963C103.911 96.4389 97.9487 98.3769 93.9775 96.3897C90.3374 94.5666 88.2491 89.3034 88.2491 81.9478V65.632C88.2491 63.4753 86.6562 61.7259 84.6924 61.7259H73.3924V53.4874H84.6924C86.6562 53.4874 88.2491 51.7381 88.2491 49.5814V37.1703H95.7521V49.5814C95.7521 51.7381 97.3438 53.4874 99.3089 53.4874H110.609V61.7259H99.3089C97.3451 61.7259 95.7521 63.4753 95.7521 65.632V81.9478C95.7521 84.1044 97.3438 85.8538 99.3089 85.8538C101.273 85.8538 102.866 84.1044 102.866 81.9478V69.5367H114.166C116.129 69.5367 117.722 67.7873 117.722 65.6306V49.58C117.722 47.4234 116.129 45.674 114.166 45.674H102.866V33.2629C102.866 31.1062 101.273 29.3569 99.3089 29.3569H84.6924C82.7286 29.3569 81.1356 31.1062 81.1356 33.2629V45.674H69.8356C67.8718 45.674 66.2789 47.4234 66.2789 49.58V65.6306C66.2789 67.7873 67.8718 69.5367 69.8356 69.5367H81.1356V81.9478C81.1356 92.4946 84.7409 100.349 91.0256 103.497C93.0342 104.503 95.2008 105 97.4907 105C102.615 105 108.359 102.503 114.322 97.658C114.365 97.6252 114.411 97.6034 114.452 97.5665C114.53 97.4981 114.609 97.4284 114.687 97.3587C115.659 96.5551 116.636 95.6927 117.618 94.7647C135.343 78.8932 151 61.2667 151 40.0924Z" fill="url(#paint0_linear_1_425)"/>
<path d="M20.9881 104.55V122H17.4881V114.575H10.0131V122H6.51309V104.55H10.0131V111.725H17.4881V104.55H20.9881ZM37.308 114.775C37.308 115.275 37.2747 115.725 37.208 116.125H27.083C27.1663 117.125 27.5163 117.908 28.133 118.475C28.7497 119.042 29.508 119.325 30.408 119.325C31.708 119.325 32.633 118.767 33.183 117.65H36.958C36.558 118.983 35.7913 120.083 34.658 120.95C33.5247 121.8 32.133 122.225 30.483 122.225C29.1497 122.225 27.9497 121.933 26.883 121.35C25.833 120.75 25.008 119.908 24.408 118.825C23.8247 117.742 23.533 116.492 23.533 115.075C23.533 113.642 23.8247 112.383 24.408 111.3C24.9913 110.217 25.808 109.383 26.858 108.8C27.908 108.217 29.1163 107.925 30.483 107.925C31.7997 107.925 32.9747 108.208 34.008 108.775C35.058 109.342 35.8663 110.15 36.433 111.2C37.0163 112.233 37.308 113.425 37.308 114.775ZM33.683 113.775C33.6663 112.875 33.3413 112.158 32.708 111.625C32.0747 111.075 31.2997 110.8 30.383 110.8C29.5163 110.8 28.783 111.067 28.183 111.6C27.5997 112.117 27.2413 112.842 27.108 113.775H33.683ZM38.9627 115.025C38.9627 113.625 39.2377 112.383 39.7877 111.3C40.3544 110.217 41.1127 109.383 42.0627 108.8C43.0294 108.217 44.1044 107.925 45.2877 107.925C46.321 107.925 47.221 108.133 47.9877 108.55C48.771 108.967 49.396 109.492 49.8627 110.125V108.15H53.3877V122H49.8627V119.975C49.4127 120.625 48.7877 121.167 47.9877 121.6C47.2044 122.017 46.296 122.225 45.2627 122.225C44.096 122.225 43.0294 121.925 42.0627 121.325C41.1127 120.725 40.3544 119.883 39.7877 118.8C39.2377 117.7 38.9627 116.442 38.9627 115.025ZM49.8627 115.075C49.8627 114.225 49.696 113.5 49.3627 112.9C49.0294 112.283 48.5794 111.817 48.0127 111.5C47.446 111.167 46.8377 111 46.1877 111C45.5377 111 44.9377 111.158 44.3877 111.475C43.8377 111.792 43.3877 112.258 43.0377 112.875C42.7044 113.475 42.5377 114.192 42.5377 115.025C42.5377 115.858 42.7044 116.592 43.0377 117.225C43.3877 117.842 43.8377 118.317 44.3877 118.65C44.9544 118.983 45.5544 119.15 46.1877 119.15C46.8377 119.15 47.446 118.992 48.0127 118.675C48.5794 118.342 49.0294 117.875 49.3627 117.275C49.696 116.658 49.8627 115.925 49.8627 115.075ZM60.3061 103.5V122H56.8061V103.5H60.3061ZM67.8391 111.025V117.725C67.8391 118.192 67.9474 118.533 68.1641 118.75C68.3974 118.95 68.7807 119.05 69.3141 119.05H70.9391V122H68.7391C65.7891 122 64.3141 120.567 64.3141 117.7V111.025H62.6641V108.15H64.3141V104.725H67.8391V108.15H70.9391V111.025H67.8391ZM81.2564 107.95C82.3064 107.95 83.2398 108.183 84.0564 108.65C84.8731 109.1 85.5064 109.775 85.9564 110.675C86.4231 111.558 86.6564 112.625 86.6564 113.875V122H83.1564V114.35C83.1564 113.25 82.8814 112.408 82.3314 111.825C81.7814 111.225 81.0314 110.925 80.0814 110.925C79.1148 110.925 78.3481 111.225 77.7814 111.825C77.2314 112.408 76.9564 113.25 76.9564 114.35V122H73.4564V103.5H76.9564V109.875C77.4064 109.275 78.0064 108.808 78.7564 108.475C79.5064 108.125 80.3398 107.95 81.2564 107.95ZM100.635 111.6V114.55H90.0348V111.6H100.635ZM103.71 113.25C103.71 111.533 104.093 110 104.86 108.65C105.643 107.283 106.702 106.225 108.035 105.475C109.385 104.708 110.893 104.325 112.56 104.325C114.51 104.325 116.218 104.825 117.685 105.825C119.152 106.825 120.177 108.208 120.76 109.975H116.735C116.335 109.142 115.768 108.517 115.035 108.1C114.318 107.683 113.485 107.475 112.535 107.475C111.518 107.475 110.61 107.717 109.81 108.2C109.027 108.667 108.41 109.333 107.96 110.2C107.527 111.067 107.31 112.083 107.31 113.25C107.31 114.4 107.527 115.417 107.96 116.3C108.41 117.167 109.027 117.842 109.81 118.325C110.61 118.792 111.518 119.025 112.535 119.025C113.485 119.025 114.318 118.817 115.035 118.4C115.768 117.967 116.335 117.333 116.735 116.5H120.76C120.177 118.283 119.152 119.675 117.685 120.675C116.235 121.658 114.527 122.15 112.56 122.15C110.893 122.15 109.385 121.775 108.035 121.025C106.702 120.258 105.643 119.2 104.86 117.85C104.093 116.5 103.71 114.967 103.71 113.25ZM136.624 114.775C136.624 115.275 136.591 115.725 136.524 116.125H126.399C126.483 117.125 126.833 117.908 127.449 118.475C128.066 119.042 128.824 119.325 129.724 119.325C131.024 119.325 131.949 118.767 132.499 117.65H136.274C135.874 118.983 135.108 120.083 133.974 120.95C132.841 121.8 131.449 122.225 129.799 122.225C128.466 122.225 127.266 121.933 126.199 121.35C125.149 120.75 124.324 119.908 123.724 118.825C123.141 117.742 122.849 116.492 122.849 115.075C122.849 113.642 123.141 112.383 123.724 111.3C124.308 110.217 125.124 109.383 126.174 108.8C127.224 108.217 128.433 107.925 129.799 107.925C131.116 107.925 132.291 108.208 133.324 108.775C134.374 109.342 135.183 110.15 135.749 111.2C136.333 112.233 136.624 113.425 136.624 114.775ZM132.999 113.775C132.983 112.875 132.658 112.158 132.024 111.625C131.391 111.075 130.616 110.8 129.699 110.8C128.833 110.8 128.099 111.067 127.499 111.6C126.916 112.117 126.558 112.842 126.424 113.775H132.999ZM146.854 107.95C148.504 107.95 149.837 108.475 150.854 109.525C151.871 110.558 152.379 112.008 152.379 113.875V122H148.879V114.35C148.879 113.25 148.604 112.408 148.054 111.825C147.504 111.225 146.754 110.925 145.804 110.925C144.837 110.925 144.071 111.225 143.504 111.825C142.954 112.408 142.679 113.25 142.679 114.35V122H139.179V108.15H142.679V109.875C143.146 109.275 143.737 108.808 144.454 108.475C145.187 108.125 145.987 107.95 146.854 107.95ZM159.782 111.025V117.725C159.782 118.192 159.891 118.533 160.107 118.75C160.341 118.95 160.724 119.05 161.257 119.05H162.882V122H160.682C157.732 122 156.257 120.567 156.257 117.7V111.025H154.607V108.15H156.257V104.725H159.782V108.15H162.882V111.025H159.782ZM178.275 114.775C178.275 115.275 178.241 115.725 178.175 116.125H168.05C168.133 117.125 168.483 117.908 169.1 118.475C169.716 119.042 170.475 119.325 171.375 119.325C172.675 119.325 173.6 118.767 174.15 117.65H177.925C177.525 118.983 176.758 120.083 175.625 120.95C174.491 121.8 173.1 122.225 171.45 122.225C170.116 122.225 168.916 121.933 167.85 121.35C166.8 120.75 165.975 119.908 165.375 118.825C164.791 117.742 164.5 116.492 164.5 115.075C164.5 113.642 164.791 112.383 165.375 111.3C165.958 110.217 166.775 109.383 167.825 108.8C168.875 108.217 170.083 107.925 171.45 107.925C172.766 107.925 173.941 108.208 174.975 108.775C176.025 109.342 176.833 110.15 177.4 111.2C177.983 112.233 178.275 113.425 178.275 114.775ZM174.65 113.775C174.633 112.875 174.308 112.158 173.675 111.625C173.041 111.075 172.266 110.8 171.35 110.8C170.483 110.8 169.75 111.067 169.15 111.6C168.566 112.117 168.208 112.842 168.075 113.775H174.65ZM184.329 110.3C184.779 109.567 185.363 108.992 186.079 108.575C186.813 108.158 187.646 107.95 188.579 107.95V111.625H187.654C186.554 111.625 185.721 111.883 185.154 112.4C184.604 112.917 184.329 113.817 184.329 115.1V122H180.829V108.15H184.329V110.3Z" fill="#223A6A"/>
<defs>
<linearGradient id="paint0_linear_1_425" x1="33.001" y1="52.4993" x2="151.001" y2="52.4993" gradientUnits="userSpaceOnUse">
<stop stop-color="#407CE2"/>
<stop offset="0.9997" stop-color="#223A6A"/>
</linearGradient>
</defs>
</svg>
