<svg width="31" height="29" viewBox="0 0 31 29" fill="none" xmlns="http://www.w3.org/2000/svg">
<g clip-path="url(#clip0_171_7207)">
<path d="M9.04134 22.8573C10.4681 22.8573 11.6247 21.7992 11.6247 20.4938C11.6247 19.1885 10.4681 18.1304 9.04134 18.1304C7.61461 18.1304 6.45801 19.1885 6.45801 20.4938C6.45801 21.7992 7.61461 22.8573 9.04134 22.8573Z" stroke="white" stroke-width="2" stroke-linecap="round" stroke-linejoin="round"/>
<path d="M21.9583 22.8573C23.3851 22.8573 24.5417 21.7992 24.5417 20.4938C24.5417 19.1885 23.3851 18.1304 21.9583 18.1304C20.5316 18.1304 19.375 19.1885 19.375 20.4938C19.375 21.7992 20.5316 22.8573 21.9583 22.8573Z" stroke="white" stroke-width="2" stroke-linecap="round" stroke-linejoin="round"/>
<path d="M6.45833 20.4938H3.875V7.49473C3.875 7.18131 4.01109 6.88073 4.25332 6.65911C4.49555 6.43749 4.8241 6.31299 5.16667 6.31299H16.7917V20.4938H11.625H19.375M24.5417 20.4938H27.125V13.4034M27.125 13.4034H16.7917M27.125 13.4034L23.25 7.49473H16.7917" stroke="white" stroke-width="2" stroke-linecap="round" stroke-linejoin="round"/>
<path d="M10.3333 9.8584V14.5853M7.75 12.2219H12.9167H7.75Z" stroke="white" stroke-width="2" stroke-linecap="round" stroke-linejoin="round"/>
</g>
<defs>
<clipPath id="clip0_171_7207">
<rect width="31" height="28.3617" fill="white" transform="translate(0 0.404297)"/>
</clipPath>
</defs>
</svg>
