<svg width="31" height="29" viewBox="0 0 31 29" fill="none" xmlns="http://www.w3.org/2000/svg">
<g clip-path="url(#clip0_171_7199)">
<path d="M5.81204 15.1759L16.1454 5.72201C17.3444 4.62505 18.9706 4.00879 20.6662 4.00879C22.3619 4.00879 23.988 4.62505 25.187 5.72201C26.386 6.81897 27.0596 8.30676 27.0596 9.85809C27.0596 11.4094 26.386 12.8972 25.187 13.9942L14.8537 23.4481C13.6547 24.545 12.0285 25.1613 10.3329 25.1613C8.63724 25.1613 7.01104 24.545 5.81204 23.4481C4.61304 22.3511 3.93945 20.8633 3.93945 19.312C3.93945 17.7607 4.61304 16.2729 5.81204 15.1759" stroke="white" stroke-width="2" stroke-linecap="round" stroke-linejoin="round"/>
<path d="M10.9795 10.4492L20.0212 18.7214" stroke="white" stroke-width="2" stroke-linecap="round" stroke-linejoin="round"/>
</g>
<defs>
<clipPath id="clip0_171_7199">
<rect width="31" height="28.3617" fill="white" transform="translate(0 0.404297)"/>
</clipPath>
</defs>
</svg>
