<svg width="27" height="27" viewBox="0 0 27 27" fill="none" xmlns="http://www.w3.org/2000/svg">
<g clip-path="url(#clip0_184_619)">
<path d="M19.1351 3.91704L22.1288 4.11138C22.4068 4.12829 22.6782 4.20308 22.9256 4.33095C23.173 4.45882 23.391 4.63695 23.5656 4.85394C23.7402 5.07092 23.8675 5.32198 23.9395 5.59103C24.0114 5.86008 24.0264 6.14119 23.9834 6.41636C23.4504 9.4654 22.2096 12.3469 20.3608 14.8294C18.6722 17.141 16.4953 19.0525 13.9847 20.4281C11.2719 21.9456 8.23982 22.8027 5.13405 22.93C4.85648 22.937 4.58049 22.8862 4.32365 22.7807C4.0668 22.6752 3.83474 22.5174 3.64223 22.3173C3.44972 22.1172 3.30098 21.8792 3.20548 21.6185C3.10998 21.3578 3.06982 21.0801 3.08754 20.803L3.28188 17.8093C3.30855 17.3247 3.51052 16.8663 3.85015 16.5196C4.18977 16.1729 4.64388 15.9615 5.12782 15.9249C6.09408 15.8607 7.04997 15.6875 7.97727 15.4084C8.34316 15.2973 8.73322 15.2934 9.10123 15.3973C9.46924 15.5011 9.79978 15.7082 10.0537 15.9941L11.2387 17.3437C13.8293 16.0853 16.0321 14.1511 17.6148 11.745L16.4298 10.3954C16.1791 10.1067 16.0164 9.75212 15.961 9.37377C15.9057 8.99543 15.9599 8.60914 16.1174 8.26068C16.514 7.37725 16.8094 6.45178 16.9979 5.50193C17.0978 5.02162 17.3707 4.59477 17.7647 4.30255C18.1588 4.01033 18.6465 3.87313 19.1351 3.91704Z" stroke="#B3B3B3" stroke-width="4" stroke-linecap="round" stroke-linejoin="round"/>
</g>
<defs>
<clipPath id="clip0_184_619">
<rect width="24" height="24" fill="white" transform="translate(0.825195 24.7744) rotate(-86.2858)"/>
</clipPath>
</defs>
</svg>
