<svg width="31" height="29" viewBox="0 0 31 29" fill="none" xmlns="http://www.w3.org/2000/svg">
<g clip-path="url(#clip0_171_7188)">
<path d="M7.75 5.13135H6.45833C5.77319 5.13135 5.11611 5.38036 4.63164 5.82359C4.14717 6.26683 3.875 6.86799 3.875 7.49482V11.6309C3.875 13.3547 4.62347 15.0079 5.95576 16.2268C7.28805 17.4457 9.09502 18.1305 10.9792 18.1305C12.8633 18.1305 14.6703 17.4457 16.0026 16.2268C17.3349 15.0079 18.0833 13.3547 18.0833 11.6309V7.49482C18.0833 6.86799 17.8112 6.26683 17.3267 5.82359C16.8422 5.38036 16.1851 5.13135 15.5 5.13135H14.2083" stroke="white" stroke-width="2" stroke-linecap="round" stroke-linejoin="round"/>
<path d="M10.333 18.1302C10.333 19.0613 10.5335 19.9833 10.9229 20.8436C11.3124 21.7038 11.8833 22.4855 12.6029 23.1439C13.3226 23.8023 14.1769 24.3245 15.1172 24.6809C16.0575 25.0372 17.0653 25.2206 18.083 25.2206C19.1008 25.2206 20.1085 25.0372 21.0488 24.6809C21.9891 24.3245 22.8434 23.8023 23.5631 23.1439C24.2827 22.4855 24.8536 21.7038 25.2431 20.8436C25.6325 19.9833 25.833 19.0613 25.833 18.1302V14.585" stroke="white" stroke-width="2" stroke-linecap="round" stroke-linejoin="round"/>
<path d="M14.208 3.94971V6.31318" stroke="white" stroke-width="2" stroke-linecap="round" stroke-linejoin="round"/>
<path d="M7.75 3.94971V6.31318" stroke="white" stroke-width="2" stroke-linecap="round" stroke-linejoin="round"/>
<path d="M25.8333 14.5853C27.2601 14.5853 28.4167 13.5272 28.4167 12.2219C28.4167 10.9166 27.2601 9.8584 25.8333 9.8584C24.4066 9.8584 23.25 10.9166 23.25 12.2219C23.25 13.5272 24.4066 14.5853 25.8333 14.5853Z" stroke="white" stroke-width="2" stroke-linecap="round" stroke-linejoin="round"/>
</g>
<defs>
<clipPath id="clip0_171_7188">
<rect width="31" height="28.3617" fill="white" transform="translate(0 0.404297)"/>
</clipPath>
</defs>
</svg>
