<svg width="26" height="26" viewBox="0 0 26 26" fill="none" xmlns="http://www.w3.org/2000/svg">
<g clip-path="url(#clip0_184_784)">
<path d="M22.3285 17.9736L22.1839 20.9701C22.1716 21.2484 22.1014 21.521 21.9776 21.7705C21.8539 22.02 21.6794 22.2409 21.4653 22.419C21.2513 22.5972 21.0024 22.7287 20.7345 22.8051C20.4667 22.8815 20.1859 22.9011 19.9101 22.8627C16.8526 22.3805 13.9509 21.1877 11.4381 19.3804C9.09869 17.7304 7.15131 15.5855 5.73421 13.0981C4.17189 10.4109 3.26453 7.39348 3.08565 4.29026C3.07402 4.01284 3.12028 3.73604 3.22148 3.47749C3.32269 3.21893 3.47662 2.98427 3.67348 2.78847C3.87034 2.59266 4.10582 2.43999 4.36492 2.34017C4.62401 2.24036 4.90106 2.19558 5.17841 2.20871L8.17492 2.3533C8.65989 2.37192 9.12155 2.56625 9.47384 2.90007C9.82613 3.23389 10.045 3.68442 10.0897 4.16769C10.1699 5.13275 10.359 6.08563 10.6534 7.00816C10.7706 7.37216 10.7809 7.7621 10.6832 8.13179C10.5855 8.50147 10.3839 8.83541 10.1023 9.09402L8.77254 10.3013C10.0738 12.8706 12.0444 15.041 14.4764 16.5835L15.8061 15.3762C16.0907 15.1208 16.4424 14.9523 16.8198 14.8906C17.1972 14.829 17.5843 14.8768 17.9354 15.0285C18.8253 15.4103 19.7555 15.6903 20.7084 15.8631C21.1903 15.9549 21.6216 16.2207 21.9203 16.6098C22.219 16.999 22.3643 17.4843 22.3285 17.9736Z" stroke="#221F1F" stroke-opacity="0.4" stroke-width="4" stroke-linecap="round" stroke-linejoin="round"/>
</g>
<defs>
<clipPath id="clip0_184_784">
<rect width="24" height="24" fill="white" transform="translate(1.16992 0.0126953) rotate(2.76257)"/>
</clipPath>
</defs>
</svg>
